<svg width="92" height="92" viewBox="0 0 92 92" fill="none" xmlns="http://www.w3.org/2000/svg">
<rect width="92" height="92" rx="46" fill="#38A2FF"/>
<path fill-rule="evenodd" clip-rule="evenodd" d="M72.7607 19.6637C69.5392 16.4422 64.2468 16.4422 61.0253 19.6637C59.1269 21.5621 58.264 24.2658 58.6667 26.8545C58.7817 27.7174 58.7242 28.6378 58.3215 29.4432C57.8038 30.4787 56.9409 31.2265 55.9054 31.6292C54.8699 32.0319 53.6619 32.0319 52.6264 31.5142C46.6436 28.7529 39.4528 30.0185 34.7356 34.7356C30.0185 39.3953 28.7529 46.5861 31.5141 52.6264C32.0319 53.7194 32.0319 54.9275 31.6292 55.9629C31.284 56.9409 30.5362 57.8038 29.4432 58.3215C28.8679 58.6092 28.2927 58.7242 27.6599 58.7242C27.3722 58.7242 27.0846 58.6667 26.797 58.6092H26.6819C24.0932 58.264 21.562 59.0694 19.6637 60.9678C18.1105 62.521 17.2476 64.6495 17.2476 66.8355C17.2476 69.079 18.1105 71.15 19.6637 72.7032C22.8852 75.9247 28.1776 75.9247 31.3991 72.7032C33.2399 70.8048 34.1604 68.101 33.7002 65.4548V65.0521C33.6426 64.3043 33.8152 63.614 34.1028 62.9237C34.5631 61.8882 35.426 61.1403 36.4614 60.7376C37.4969 60.335 38.6474 60.335 39.7404 60.8527C45.7232 63.614 52.914 62.3484 57.6312 57.6312C62.3484 52.9716 63.614 45.7232 60.8527 39.7404C60.3925 38.705 60.335 37.5544 60.7376 36.519C61.1403 35.4835 61.8882 34.6206 62.9812 34.1028C63.7866 33.7577 64.5919 33.6426 65.3398 33.7577H65.7425C68.3311 34.1028 70.8623 33.2975 72.7607 31.3991C75.9822 28.1776 75.9822 22.8852 72.7607 19.6637ZM52.799 39.798C56.3656 43.4221 56.3656 49.2323 52.799 52.799C49.2323 56.3656 43.4221 56.3656 39.798 52.799C36.2313 49.1748 36.2313 43.3646 39.798 39.798C43.4221 36.2313 49.2323 36.2313 52.799 39.798ZM75.8096 16.7298C80.6994 21.6771 80.6994 29.6158 75.8096 34.5055C73.9688 36.2889 71.7252 37.4394 69.4242 38.0147C72.7032 46.8737 70.5747 56.9984 63.7866 63.7866C59.1269 68.4462 52.8565 70.9198 46.4711 70.9198C43.5947 70.9198 40.7184 70.4021 37.9571 69.3666C37.4969 71.7252 36.3464 74.0263 34.5055 75.8671C29.5582 80.7569 21.6196 80.7569 16.7298 75.8671C11.8401 70.9198 11.8401 62.9812 16.7298 58.0914C18.5707 56.2506 20.8142 55.1 23.1728 54.6398C19.7787 45.7232 21.9072 35.4835 28.6953 28.6953C35.4835 21.9072 45.6657 19.7787 54.5823 23.1153C55.1 20.8142 56.193 18.5707 58.0339 16.7298C62.9812 11.8401 70.9198 11.8401 75.8096 16.7298Z" fill="white"/>
</svg>
